<svg width="32" height="40" viewBox="0 0 32 40" fill="none" xmlns="http://www.w3.org/2000/svg" opacity="0.7">
  <!-- Pin shape -->
  <path d="M16 0C7.16 0 0 7.16 0 16C0 28 16 40 16 40S32 28 32 16C32 7.16 24.84 0 16 0Z" fill="#8B8B8B"/>
  
  <!-- Espresso cup -->
  <g transform="translate(8, 8)">
    <!-- Cup body -->
    <path d="M3 6h10c0 4.418-2.686 8-6 8s-6-3.582-6-8z" fill="white"/>
    <!-- Cup rim -->
    <ellipse cx="8" cy="6" rx="5" ry="1.5" fill="white"/>
    <!-- Handle -->
    <path d="M13 8c1.5 0 2.5 1 2.5 2.5S14.5 13 13 13" stroke="white" stroke-width="1.5" fill="none"/>
    <!-- Coffee surface -->
    <ellipse cx="8" cy="6" rx="4" ry="1" fill="#8B4513"/>
    <!-- Steam (lighter for past events) -->
    <path d="M6 4c0-0.5 0.5-1 1-0.5s0.5 1 0 1.5" stroke="rgba(255,255,255,0.6)" stroke-width="0.8" stroke-linecap="round" fill="none"/>
    <path d="M8 4c0-0.5 0.5-1 1-0.5s0.5 1 0 1.5" stroke="rgba(255,255,255,0.6)" stroke-width="0.8" stroke-linecap="round" fill="none"/>
    <path d="M10 4c0-0.5 0.5-1 1-0.5s0.5 1 0 1.5" stroke="rgba(255,255,255,0.6)" stroke-width="0.8" stroke-linecap="round" fill="none"/>
  </g>
  
  <!-- Shadow -->
  <ellipse cx="16" cy="38" rx="8" ry="2" fill="rgba(0,0,0,0.1)"/>
</svg>