<?xml version="1.0" encoding="utf-8"?>
<!-- Generator: Adobe Illustrator 27.5.0, SVG Export Plug-In . SVG Version: 6.00 Build 0)  -->
<svg version="1.1" id="Layer_1" xmlns="http://www.w3.org/2000/svg" xmlns:xlink="http://www.w3.org/1999/xlink" x="0px" y="0px"
	 viewBox="0 0 588 738.2" style="enable-background:new 0 0 588 738.2;" xml:space="preserve">
<style type="text/css">
	.st0{fill:#270903;}
	.st1{fill:#FFFFFF;}
	.st2{fill:#DE9E67;}
	.st3{fill:#1EB6F8;}
</style>
<g>
	<g>
		<path class="st2" d="M113.6,581.1v11.9H69.8v28.6h41.9v11.9H69.8v29.7h43.8v11.9H56.8v-94H113.6z"/>
		<path class="st2" d="M128.9,670.7c-4.7-3.9-7.2-9.1-7.5-15.6h12.7c0.4,3.2,1.7,5.8,4.1,7.7c2.4,1.9,5.2,2.9,8.5,2.9
			c3.4,0,6-0.7,7.9-2.2c1.8-1.5,2.8-3.3,2.8-5.4c0-2.7-1.1-4.7-3.3-6c-2.2-1.3-5.7-2.7-10.4-4.1c-4.3-1.3-7.9-2.6-10.7-3.9
			c-2.8-1.3-5.2-3.3-7.2-5.9c-2-2.6-3-6-3-10.2c0-3.2,0.9-6.3,2.6-9.2c1.8-2.9,4.3-5.3,7.7-7.1c3.4-1.8,7.4-2.7,12.1-2.7
			c6.6,0,12.1,1.8,16.3,5.4c4.2,3.6,6.7,8.6,7.3,15.1h-12.7c-0.5-3-1.6-5.4-3.5-7.1c-1.9-1.7-4.4-2.6-7.4-2.6
			c-2.8,0-5.1,0.7-6.9,2.2c-1.8,1.5-2.8,3.5-2.8,5.9c0,2.6,1.1,4.5,3.2,5.8c2.2,1.3,5.6,2.7,10.3,4.1c4.3,1.2,7.9,2.5,10.8,3.8
			c2.9,1.3,5.3,3.3,7.3,5.9c2,2.6,3,6.1,3,10.4c0,3.5-1,6.7-3,9.5c-2,2.8-4.8,5-8.4,6.6c-3.6,1.6-7.5,2.4-12,2.4
			C139.5,676.5,133.6,674.5,128.9,670.7z"/>
		<path class="st2" d="M230.5,613c4.7,2.7,8.6,6.6,11.4,11.7c2.9,5.1,4.3,11.1,4.3,18s-1.4,12.9-4.3,18c-2.9,5.1-6.7,9-11.4,11.7
			c-4.7,2.7-9.9,4-15.4,4c-4.6,0-8.8-0.9-12.7-2.7c-3.8-1.8-6.9-4.4-9.2-7.8v36.2h-12.7v-91.8h11.2l1.1,9.8c2.3-3.6,5.4-6.4,9.3-8.3
			c3.9-1.9,8.2-2.9,12.9-2.9C220.6,609,225.8,610.3,230.5,613z M223.5,662.2c3.1-1.8,5.5-4.3,7.3-7.7c1.8-3.4,2.7-7.3,2.7-11.8
			c0-4.5-0.9-8.5-2.7-11.8c-1.8-3.4-4.2-5.9-7.3-7.7c-3.1-1.8-6.5-2.6-10.2-2.6c-3.6,0-7,0.9-10.1,2.7c-3.1,1.8-5.6,4.4-7.5,7.7
			c-1.9,3.4-2.8,7.3-2.8,11.7c0,4.4,0.9,8.3,2.8,11.7c1.9,3.4,4.4,5.9,7.5,7.7c3.1,1.8,6.5,2.7,10.1,2.7
			C217,664.9,220.4,664,223.5,662.2z"/>
		<path class="st2" d="M255.3,634.2c0-7.8,2.2-14,6.6-18.5c4.4-4.5,10.2-6.7,17.4-6.7c2.3,0,4.7,0.3,7.1,1v11.6
			c-0.8-0.1-2.5-0.1-5-0.1c-4.3,0-7.7,1.2-10,3.6c-2.3,2.4-3.5,6.5-3.5,12.2v37.9h-12.7V634.2z"/>
		<path class="st2" d="M352.6,647.7h-50.2c0.9,5.3,3.2,9.4,6.7,12.5c3.5,3.1,7.8,4.6,12.8,4.6c8,0,13.5-3,16.3-9.1h13
			c-1.9,6.3-5.6,11.3-10.9,15.1c-5.3,3.8-11.5,5.7-18.5,5.7c-6.2,0-11.8-1.4-16.7-4.3c-5-2.9-8.9-6.8-11.7-12
			c-2.8-5.1-4.2-10.9-4.2-17.5c0-6.5,1.4-12.4,4.1-17.5c2.8-5.1,6.6-9.1,11.6-12c5-2.9,10.6-4.3,16.9-4.3c5.6,0,10.8,1.5,15.6,4.4
			c4.7,3,8.5,7,11.3,12.2c2.8,5.2,4.1,10.9,4.1,17.1C352.9,644.8,352.8,646.4,352.6,647.7z M309.3,625.1c-3.5,3-5.7,7-6.7,12.1h37.2
			c-0.5-4.5-2.4-8.4-5.7-11.7c-3.3-3.3-7.4-4.9-12.2-4.9C316.9,620.6,312.7,622.1,309.3,625.1z"/>
		<path class="st2" d="M366.1,670.7c-4.7-3.9-7.2-9.1-7.5-15.6h12.7c0.4,3.2,1.7,5.8,4.1,7.7c2.4,1.9,5.2,2.9,8.5,2.9
			c3.4,0,6-0.7,7.9-2.2c1.8-1.5,2.8-3.3,2.8-5.4c0-2.7-1.1-4.7-3.3-6c-2.2-1.3-5.7-2.7-10.4-4.1c-4.3-1.3-7.9-2.6-10.7-3.9
			c-2.8-1.3-5.2-3.3-7.2-5.9c-2-2.6-3-6-3-10.2c0-3.2,0.9-6.3,2.6-9.2c1.8-2.9,4.3-5.3,7.7-7.1c3.4-1.8,7.4-2.7,12.1-2.7
			c6.6,0,12.1,1.8,16.3,5.4c4.2,3.6,6.7,8.6,7.3,15.1h-12.7c-0.5-3-1.6-5.4-3.5-7.1c-1.9-1.7-4.4-2.6-7.4-2.6
			c-2.8,0-5.1,0.7-6.9,2.2c-1.8,1.5-2.8,3.5-2.8,5.9c0,2.6,1.1,4.5,3.2,5.8c2.2,1.3,5.6,2.7,10.3,4.1c4.3,1.2,7.9,2.5,10.8,3.8
			c2.9,1.3,5.3,3.3,7.3,5.9c2,2.6,3,6.1,3,10.4c0,3.5-1,6.7-3,9.5c-2,2.8-4.8,5-8.4,6.6c-3.6,1.6-7.5,2.4-12,2.4
			C376.7,676.5,370.8,674.5,366.1,670.7z"/>
		<path class="st2" d="M421.1,670.7c-4.7-3.9-7.2-9.1-7.5-15.6h12.7c0.4,3.2,1.7,5.8,4.1,7.7c2.4,1.9,5.2,2.9,8.5,2.9
			c3.4,0,6-0.7,7.9-2.2c1.8-1.5,2.8-3.3,2.8-5.4c0-2.7-1.1-4.7-3.3-6c-2.2-1.3-5.7-2.7-10.4-4.1c-4.3-1.3-7.9-2.6-10.7-3.9
			c-2.8-1.3-5.2-3.3-7.2-5.9c-2-2.6-3-6-3-10.2c0-3.2,0.9-6.3,2.6-9.2c1.8-2.9,4.3-5.3,7.7-7.1c3.4-1.8,7.4-2.7,12.1-2.7
			c6.6,0,12.1,1.8,16.3,5.4c4.2,3.6,6.7,8.6,7.3,15.1h-12.7c-0.5-3-1.6-5.4-3.5-7.1c-1.9-1.7-4.4-2.6-7.4-2.6
			c-2.8,0-5.1,0.7-6.9,2.2c-1.8,1.5-2.8,3.5-2.8,5.9c0,2.6,1.1,4.5,3.2,5.8c2.2,1.3,5.6,2.7,10.3,4.1c4.3,1.2,7.9,2.5,10.8,3.8
			c2.9,1.3,5.3,3.3,7.3,5.9c2,2.6,3,6.1,3,10.4c0,3.5-1,6.7-3,9.5c-2,2.8-4.8,5-8.4,6.6c-3.6,1.6-7.5,2.4-12,2.4
			C431.7,676.5,425.8,674.5,421.1,670.7z"/>
		<path class="st2" d="M483.7,672c-5.1-3-9.1-7.1-12-12.2c-2.9-5.1-4.4-10.8-4.4-17.1c0-6.3,1.5-12,4.4-17.1
			c2.9-5.1,6.9-9.2,12-12.2c5.1-3,10.8-4.5,17.1-4.5c6.3,0,12,1.5,17.1,4.5c5.1,3,9.1,7.1,12,12.2c2.9,5.1,4.4,10.8,4.4,17.1
			c0,6.3-1.5,12-4.4,17.1c-2.9,5.1-6.9,9.2-12,12.2c-5.1,3-10.8,4.5-17.1,4.5C494.5,676.5,488.8,675,483.7,672z M511.4,662
			c3.1-1.9,5.6-4.5,7.4-7.9c1.8-3.4,2.7-7.2,2.7-11.4c0-4.2-0.9-8-2.7-11.4c-1.8-3.4-4.3-6-7.4-7.9c-3.1-1.9-6.7-2.8-10.6-2.8
			c-4,0-7.5,0.9-10.6,2.8c-3.1,1.9-5.6,4.5-7.4,7.9c-1.8,3.4-2.7,7.2-2.7,11.4c0,4.2,0.9,8,2.7,11.4c1.8,3.4,4.3,6,7.4,7.9
			c3.1,1.9,6.7,2.8,10.6,2.8C504.7,664.9,508.3,663.9,511.4,662z"/>
	</g>
	<g>
		<g>
			<path class="st2" d="M363.2,193.4c5.7,0,11.2,0.6,16.6,1.6V54.8h-33.1V195C352,193.9,357.5,193.4,363.2,193.4z"/>
			<path class="st2" d="M313.6,208.5L178.4,69.8l-27.7,27.7l138.7,135.1C295.9,223.1,304.1,214.9,313.6,208.5z"/>
			<path class="st2" d="M289.1,233.1L94.8,148.2l-16.1,38.9l197.4,77.4C278.4,253.1,282.9,242.5,289.1,233.1z"/>
			<path class="st2" d="M449.5,261.3l78.1-34.1l-9.2-22.3L439,236C443.7,243.7,447.3,252.2,449.5,261.3z"/>
			<path class="st2" d="M411.2,207.5l43.5-106.9l-27.8-11.5L382,195.4C392.6,197.7,402.4,201.9,411.2,207.5z"/>
			<path class="st2" d="M435.5,230.8l67.5-69.2l-19.2-19.2l-69.2,67.5C422.7,215.6,429.8,222.7,435.5,230.8z"/>
			<path class="st2" d="M345.5,195.2L282.3,39.7l-33.4,13.8l65.2,154.6C323.5,201.9,334.1,197.5,345.5,195.2z"/>
			<path class="st2" d="M363.2,371c-5.7,0-11.2-0.6-16.6-1.6V510h33.1V369.5C374.4,370.5,368.8,371,363.2,371z"/>
			<path class="st2" d="M382,369l45,106.6l27.8-11.5l-43.6-107.2C402.4,362.6,392.6,366.7,382,369z"/>
			<path class="st2" d="M414.6,354.6l69.4,67.6l19.2-19.2l-67.6-69.4C429.8,341.8,422.7,348.8,414.6,354.6z"/>
			<path class="st2" d="M276.1,299.9L78.5,377.3l16.1,38.9l194.5-85C282.9,321.9,278.4,311.3,276.1,299.9z"/>
			<path class="st2" d="M314.1,356.3l-65.4,155l33.4,13.8l63.3-155.8C334.1,367,323.5,362.5,314.1,356.3z"/>
			<path class="st2" d="M289.5,331.8L150.5,467.2l27.7,27.7l135.4-138.9C304.1,349.5,295.9,341.3,289.5,331.8z"/>
		</g>
		<polygon class="st2" points="532.4,292.8 57.3,304.7 57.3,259.5 532.4,271.7 532.4,292.8 		"/>
	</g>
</g>
</svg>
