<?xml version="1.0" encoding="utf-8"?>
<!-- Generator: Adobe Illustrator 27.5.0, SVG Export Plug-In . SVG Version: 6.00 Build 0)  -->
<svg version="1.1" id="Layer_1" xmlns="http://www.w3.org/2000/svg" xmlns:xlink="http://www.w3.org/1999/xlink" x="0px" y="0px"
	 viewBox="0 0 1200 434.4" style="enable-background:new 0 0 1200 434.4;" xml:space="preserve">
<style type="text/css">
	.st0{fill:#270903;}
	.st1{fill:#FFFFFF;}
	.st2{fill:#DE9E67;}
	.st3{fill:#1EB6F8;}
</style>
<g>
	<g>
		<path class="st3" d="M543.5,60.6v17.2h-63.4v41.4h60.6v17.2h-60.6v43h63.4v17.2h-82.2v-136H543.5z"/>
		<path class="st3" d="M565.6,190.2c-6.7-5.6-10.4-13.1-10.9-22.6h18.4c0.5,4.7,2.5,8.4,5.9,11.2c3.4,2.8,7.5,4.2,12.3,4.2
			c4.9,0,8.7-1.1,11.4-3.2c2.7-2.1,4-4.7,4-7.8c0-3.9-1.6-6.8-4.8-8.7c-3.2-1.9-8.2-3.9-15-5.9c-6.3-1.9-11.4-3.8-15.5-5.7
			c-4.1-1.9-7.5-4.8-10.4-8.5c-2.9-3.7-4.3-8.7-4.3-14.8c0-4.7,1.3-9.1,3.8-13.3c2.5-4.2,6.2-7.6,11.1-10.2
			c4.9-2.6,10.7-3.9,17.5-3.9c9.6,0,17.5,2.6,23.6,7.8c6.1,5.2,9.7,12.5,10.6,21.8h-18.4c-0.7-4.4-2.4-7.8-5.1-10.3
			c-2.7-2.5-6.3-3.7-10.7-3.7c-4,0-7.3,1.1-10,3.2c-2.7,2.1-4,5-4,8.6c0,3.7,1.6,6.5,4.7,8.4c3.1,1.9,8.1,3.9,14.9,6
			c6.3,1.7,11.5,3.6,15.6,5.5c4.1,1.9,7.6,4.8,10.5,8.6c2.9,3.8,4.3,8.8,4.3,15.1c0,5.1-1.5,9.6-4.4,13.7c-2.9,4.1-7,7.2-12.1,9.5
			c-5.1,2.3-10.9,3.4-17.3,3.4C580.9,198.6,572.3,195.8,565.6,190.2z"/>
		<path class="st3" d="M712.6,106.8c6.9,3.9,12.4,9.5,16.5,16.9c4.1,7.4,6.2,16.1,6.2,26.1s-2.1,18.7-6.2,26.1
			c-4.1,7.4-9.6,13-16.5,16.9c-6.9,3.9-14.3,5.8-22.3,5.8c-6.7,0-12.8-1.3-18.3-3.9c-5.5-2.6-10-6.4-13.3-11.3v52.4h-18.4V103h16.2
			l1.6,14.2c3.3-5.2,7.8-9.2,13.5-12c5.7-2.8,11.9-4.2,18.7-4.2C698.3,101,705.7,103,712.6,106.8z M702.4,178
			c4.5-2.5,8-6.2,10.6-11.1c2.6-4.9,3.9-10.6,3.9-17.1c0-6.5-1.3-12.2-3.9-17.1c-2.6-4.9-6.1-8.6-10.6-11.1
			c-4.5-2.5-9.4-3.8-14.7-3.8c-5.2,0-10.1,1.3-14.6,3.9c-4.5,2.6-8.2,6.3-10.9,11.2c-2.7,4.9-4.1,10.5-4.1,16.9
			c0,6.4,1.4,12,4.1,16.9c2.7,4.9,6.4,8.6,10.9,11.2c4.5,2.6,9.4,3.9,14.6,3.9C693,181.8,697.9,180.6,702.4,178z"/>
		<path class="st3" d="M748.4,137.4c0-11.3,3.2-20.2,9.6-26.7c6.4-6.5,14.8-9.7,25.2-9.7c3.3,0,6.7,0.5,10.2,1.4v16.8
			c-1.2-0.1-3.6-0.2-7.2-0.2c-6.3,0-11.1,1.7-14.4,5.2c-3.3,3.5-5,9.3-5,17.6v54.8h-18.4V137.4z"/>
		<path class="st3" d="M889.2,157h-72.6c1.3,7.6,4.6,13.6,9.7,18.1c5.1,4.5,11.3,6.7,18.5,6.7c11.6,0,19.5-4.4,23.6-13.2h18.8
			c-2.8,9.1-8,16.3-15.7,21.8c-7.7,5.5-16.6,8.2-26.7,8.2c-8.9,0-17-2.1-24.2-6.2c-7.2-4.1-12.8-9.9-16.9-17.3
			c-4.1-7.4-6.1-15.8-6.1-25.3c0-9.5,2-17.9,6-25.3s9.6-13.2,16.8-17.3c7.2-4.1,15.3-6.2,24.4-6.2c8.1,0,15.6,2.1,22.5,6.4
			c6.9,4.3,12.3,10.1,16.3,17.6c4,7.5,6,15.7,6,24.8C889.6,152.8,889.4,155.2,889.2,157z M826.5,124.3c-5,4.3-8.2,10.2-9.7,17.5
			h53.8c-0.7-6.5-3.4-12.2-8.2-16.9c-4.8-4.7-10.7-7.1-17.6-7.1C837.6,117.8,831.5,120,826.5,124.3z"/>
		<path class="st3" d="M908.7,190.2c-6.7-5.6-10.4-13.1-10.9-22.6h18.4c0.5,4.7,2.5,8.4,5.9,11.2c3.4,2.8,7.5,4.2,12.3,4.2
			c4.9,0,8.7-1.1,11.4-3.2c2.7-2.1,4-4.7,4-7.8c0-3.9-1.6-6.8-4.8-8.7c-3.2-1.9-8.2-3.9-15-5.9c-6.3-1.9-11.4-3.8-15.5-5.7
			c-4.1-1.9-7.5-4.8-10.4-8.5c-2.9-3.7-4.3-8.7-4.3-14.8c0-4.7,1.3-9.1,3.8-13.3c2.5-4.2,6.2-7.6,11.1-10.2
			c4.9-2.6,10.7-3.9,17.5-3.9c9.6,0,17.5,2.6,23.6,7.8c6.1,5.2,9.7,12.5,10.6,21.8H948c-0.7-4.4-2.4-7.8-5.1-10.3
			c-2.7-2.5-6.3-3.7-10.7-3.7c-4,0-7.3,1.1-10,3.2c-2.7,2.1-4,5-4,8.6c0,3.7,1.6,6.5,4.7,8.4c3.1,1.9,8.1,3.9,14.9,6
			c6.3,1.7,11.5,3.6,15.6,5.5c4.1,1.9,7.6,4.8,10.5,8.6c2.9,3.8,4.3,8.8,4.3,15.1c0,5.1-1.5,9.6-4.4,13.7c-2.9,4.1-7,7.2-12.1,9.5
			c-5.1,2.3-10.9,3.4-17.3,3.4C924,198.6,915.4,195.8,908.7,190.2z"/>
		<path class="st3" d="M988.3,190.2c-6.7-5.6-10.4-13.1-10.9-22.6h18.4c0.5,4.7,2.5,8.4,5.9,11.2c3.4,2.8,7.5,4.2,12.3,4.2
			c4.9,0,8.7-1.1,11.4-3.2c2.7-2.1,4-4.7,4-7.8c0-3.9-1.6-6.8-4.8-8.7c-3.2-1.9-8.2-3.9-15-5.9c-6.3-1.9-11.4-3.8-15.5-5.7
			c-4.1-1.9-7.5-4.8-10.4-8.5c-2.9-3.7-4.3-8.7-4.3-14.8c0-4.7,1.3-9.1,3.8-13.3c2.5-4.2,6.2-7.6,11.1-10.2
			c4.9-2.6,10.7-3.9,17.5-3.9c9.6,0,17.5,2.6,23.6,7.8c6.1,5.2,9.7,12.5,10.6,21.8h-18.4c-0.7-4.4-2.4-7.8-5.1-10.3
			c-2.7-2.5-6.3-3.7-10.7-3.7c-4,0-7.3,1.1-10,3.2c-2.7,2.1-4,5-4,8.6c0,3.7,1.6,6.5,4.7,8.4c3.1,1.9,8.1,3.9,14.9,6
			c6.3,1.7,11.5,3.6,15.6,5.5c4.1,1.9,7.6,4.8,10.5,8.6c2.9,3.8,4.3,8.8,4.3,15.1c0,5.1-1.5,9.6-4.4,13.7c-2.9,4.1-7,7.2-12.1,9.5
			c-5.1,2.3-10.9,3.4-17.3,3.4C1003.6,198.6,995,195.8,988.3,190.2z"/>
		<path class="st3" d="M1078.7,192.1c-7.4-4.3-13.2-10.2-17.4-17.6s-6.3-15.6-6.3-24.7c0-9.1,2.1-17.3,6.3-24.7s10-13.3,17.4-17.6
			c7.4-4.3,15.6-6.5,24.7-6.5c9.1,0,17.3,2.2,24.7,6.5c7.4,4.3,13.2,10.2,17.4,17.6s6.3,15.6,6.3,24.7c0,9.1-2.1,17.3-6.3,24.7
			s-10,13.3-17.4,17.6c-7.4,4.3-15.6,6.5-24.7,6.5C1094.4,198.6,1086.1,196.5,1078.7,192.1z M1118.8,177.7
			c4.5-2.7,8.1-6.5,10.7-11.4c2.6-4.9,3.9-10.4,3.9-16.5c0-6.1-1.3-11.6-3.9-16.5c-2.6-4.9-6.2-8.7-10.7-11.4
			c-4.5-2.7-9.7-4.1-15.4-4.1c-5.7,0-10.9,1.4-15.4,4.1c-4.5,2.7-8.1,6.5-10.7,11.4c-2.6,4.9-3.9,10.4-3.9,16.5
			c0,6.1,1.3,11.6,3.9,16.5c2.6,4.9,6.2,8.7,10.7,11.4c4.5,2.7,9.7,4.1,15.4,4.1C1109.2,181.8,1114.3,180.5,1118.8,177.7z"/>
		<path class="st3" d="M477.9,368.4c-7.5-4.1-13.1-9.5-17-16.2c-3.9-6.7-5.9-13.7-6.2-21h19.4c0.9,8.5,4.1,15,9.5,19.5
			c5.4,4.5,12.4,6.7,21.1,6.7c8.3,0,14.8-1.8,19.6-5.5c4.8-3.7,7.2-8.5,7.2-14.5c0-4.4-1.4-8.1-4.2-11.1s-6.3-5.4-10.5-7.3
			c-4.2-1.9-10-4.1-17.3-6.6c-9.3-3.2-16.8-6.2-22.4-8.9c-5.6-2.7-10.4-6.6-14.4-11.7c-4-5.1-6-11.5-6-19.4c0-7.5,1.9-14.1,5.8-19.8
			c3.9-5.7,9.2-10.2,16.1-13.3c6.9-3.1,14.6-4.7,23.3-4.7c9.6,0,17.9,2.1,24.8,6.2c6.9,4.1,12.2,9.5,15.9,16.1
			c3.7,6.6,5.7,13.6,6.1,21.1h-19.4c-0.5-7.9-3.3-14.2-8.3-19c-5-4.8-11.4-7.2-19.1-7.2c-8,0-14.4,1.9-19.1,5.8
			c-4.7,3.9-7.1,8.8-7.1,14.8c0,4.3,1.4,7.8,4.1,10.7c2.7,2.9,6.1,5.2,10.1,6.9c4,1.7,9.6,3.8,16.8,6.2c9.3,3.1,16.9,6,22.7,8.8
			c5.8,2.8,10.8,6.8,14.9,12.1c4.1,5.3,6.2,12,6.2,20.3c0,7.2-1.9,13.6-5.8,19.3c-3.9,5.7-9.3,10.1-16.2,13.2
			c-6.9,3.1-14.9,4.7-23.8,4.7C494.3,374.6,485.4,372.6,477.9,368.4z"/>
		<path class="st3" d="M626.9,279h19.6l-52,132.8h-19.8l16.4-40.4L555.3,279h20.4l21.8,59.2c1.7,4.7,2.9,9.1,3.6,13.4h0.4
			c0.7-4.3,1.9-8.7,3.6-13.4L626.9,279z"/>
		<path class="st3" d="M659.5,366.2c-6.7-5.6-10.4-13.1-10.9-22.6H667c0.5,4.7,2.5,8.4,5.9,11.2c3.4,2.8,7.5,4.2,12.3,4.2
			c4.9,0,8.7-1.1,11.4-3.2c2.7-2.1,4-4.7,4-7.8c0-3.9-1.6-6.8-4.8-8.7c-3.2-1.9-8.2-3.9-15-5.9c-6.3-1.9-11.4-3.8-15.5-5.7
			c-4.1-1.9-7.5-4.8-10.4-8.5c-2.9-3.7-4.3-8.7-4.3-14.8c0-4.7,1.3-9.1,3.8-13.3c2.5-4.2,6.2-7.6,11.1-10.2
			c4.9-2.6,10.7-3.9,17.5-3.9c9.6,0,17.5,2.6,23.6,7.8c6.1,5.2,9.7,12.5,10.6,21.8h-18.4c-0.7-4.4-2.4-7.8-5.1-10.3
			c-2.7-2.5-6.3-3.7-10.7-3.7c-4,0-7.3,1.1-10,3.2c-2.7,2.1-4,5-4,8.6c0,3.7,1.6,6.5,4.7,8.4c3.1,1.9,8.1,3.9,14.9,6
			c6.3,1.7,11.5,3.6,15.6,5.5c4.1,1.9,7.6,4.8,10.5,8.6c2.9,3.8,4.3,8.8,4.3,15.1c0,5.1-1.5,9.6-4.4,13.7c-2.9,4.1-7,7.2-12.1,9.5
			c-5.1,2.3-10.9,3.4-17.3,3.4C674.8,374.6,666.2,371.8,659.5,366.2z"/>
		<path class="st3" d="M778.9,294.6h-27.2v45.6c0,6.4,1.5,10.8,4.5,13.3c3,2.5,7.8,3.7,14.3,3.7l7-0.2v15.4c-3.9,0.9-7.9,1.4-12,1.4
			c-9.3,0-17-2.8-23.1-8.4c-6.1-5.6-9.1-13.3-9.1-23l-0.2-94.8h18.6V279h27.2V294.6z"/>
		<path class="st3" d="M874.4,333h-72.6c1.3,7.6,4.6,13.6,9.7,18.1c5.1,4.5,11.3,6.7,18.5,6.7c11.6,0,19.5-4.4,23.6-13.2h18.8
			c-2.8,9.1-8,16.3-15.7,21.8c-7.7,5.5-16.6,8.2-26.7,8.2c-8.9,0-17-2.1-24.2-6.2c-7.2-4.1-12.8-9.9-16.9-17.3
			c-4.1-7.4-6.1-15.8-6.1-25.3c0-9.5,2-17.9,6-25.3c4-7.4,9.6-13.2,16.8-17.3c7.2-4.1,15.3-6.2,24.4-6.2c8.1,0,15.6,2.1,22.5,6.4
			c6.9,4.3,12.3,10.1,16.3,17.6c4,7.5,6,15.7,6,24.8C874.8,328.8,874.7,331.2,874.4,333z M811.7,300.3c-5,4.3-8.2,10.2-9.7,17.5
			h53.8c-0.7-6.5-3.4-12.2-8.2-16.9c-4.8-4.7-10.7-7.1-17.6-7.1C822.8,293.8,816.7,296,811.7,300.3z"/>
		<path class="st3" d="M887.6,317.2c0-7.7,1.6-14.7,4.7-20.8c3.1-6.1,7.6-10.9,13.4-14.3c5.8-3.4,12.6-5.1,20.3-5.1
			c5.7,0,10.8,1,15.1,3.1c4.3,2.1,7.8,4.4,10.4,7.1c2.6,2.7,4.2,4.9,4.7,6.8h0.4c0.5-1.9,2.1-4.1,4.7-6.8c2.6-2.7,6.1-5,10.4-7.1
			c4.3-2.1,9.4-3.1,15.1-3.1c7.7,0,14.5,1.7,20.3,5.1s10.3,8.2,13.4,14.3c3.1,6.1,4.7,13.1,4.7,20.8v55.4h-18.4v-54
			c0-7.7-1.7-13.7-5.2-18c-3.5-4.3-8.6-6.4-15.4-6.4c-6.8,0-11.9,2.2-15.4,6.5c-3.5,4.3-5.2,10.4-5.2,18.3v53.8h-18.4V319
			c0-7.9-1.7-14-5.2-18.3c-3.5-4.3-8.6-6.5-15.4-6.5s-11.9,2.1-15.4,6.4c-3.5,4.3-5.2,10.3-5.2,18v54h-18.4V317.2z"/>
		<path class="st3" d="M1049.8,366.2c-6.7-5.6-10.4-13.1-10.9-22.6h18.4c0.5,4.7,2.5,8.4,5.9,11.2c3.4,2.8,7.5,4.2,12.3,4.2
			c4.9,0,8.7-1.1,11.4-3.2c2.7-2.1,4-4.7,4-7.8c0-3.9-1.6-6.8-4.8-8.7c-3.2-1.9-8.2-3.9-15-5.9c-6.3-1.9-11.4-3.8-15.5-5.7
			c-4.1-1.9-7.5-4.8-10.4-8.5c-2.9-3.7-4.3-8.7-4.3-14.8c0-4.7,1.3-9.1,3.8-13.3c2.5-4.2,6.2-7.6,11.1-10.2
			c4.9-2.6,10.7-3.9,17.5-3.9c9.6,0,17.5,2.6,23.6,7.8c6.1,5.2,9.7,12.5,10.6,21.8h-18.4c-0.7-4.4-2.4-7.8-5.1-10.3
			c-2.7-2.5-6.3-3.7-10.7-3.7c-4,0-7.3,1.1-10,3.2c-2.7,2.1-4,5-4,8.6c0,3.7,1.6,6.5,4.7,8.4c3.1,1.9,8.1,3.9,14.9,6
			c6.3,1.7,11.5,3.6,15.6,5.5c4.1,1.9,7.6,4.8,10.5,8.6c2.9,3.8,4.3,8.8,4.3,15.1c0,5.1-1.5,9.6-4.4,13.7c-2.9,4.1-7,7.2-12.1,9.5
			c-5.1,2.3-10.9,3.4-17.3,3.4C1065.1,374.6,1056.5,371.8,1049.8,366.2z"/>
	</g>
	<g>
		<g>
			<g>
				<path class="st3" d="M251.4,157.2c3.8,0,7.4,0.4,11,1V65.1h-22v93.1C243.9,157.5,247.6,157.2,251.4,157.2z"/>
				<path class="st3" d="M218.4,167.2l-89.8-92.1l-18.4,18.4l92.1,89.8C206.7,176.9,212.1,171.5,218.4,167.2z"/>
				<path class="st3" d="M202.2,183.6L73.1,127.2l-10.7,25.9l131.1,51.4C195.1,196.9,198.1,189.8,202.2,183.6z"/>
				<path class="st3" d="M308.7,202.3l51.9-22.7l-6.1-14.8l-52.7,20.7C304.9,190.6,307.2,196.3,308.7,202.3z"/>
				<path class="st3" d="M283.3,166.6l28.9-71l-18.5-7.7l-29.8,70.6C270.9,160,277.4,162.8,283.3,166.6z"/>
				<path class="st3" d="M299.4,182l44.8-46l-12.7-12.7l-46,44.8C290.9,171.9,295.6,176.6,299.4,182z"/>
				<path class="st3" d="M239.6,158.4l-42-103.2l-22.2,9.2L218.8,167C225,162.9,232,159.9,239.6,158.4z"/>
				<path class="st3" d="M251.4,275.2c-3.8,0-7.4-0.4-11-1v93.3h22v-93.3C258.8,274.8,255.1,275.2,251.4,275.2z"/>
				<path class="st3" d="M263.9,273.8l29.9,70.8l18.5-7.7l-28.9-71.2C277.4,269.6,270.9,272.3,263.9,273.8z"/>
				<path class="st3" d="M285.5,264.3l46.1,44.9l12.7-12.7l-44.9-46.1C295.6,255.7,290.9,260.4,285.5,264.3z"/>
				<path class="st3" d="M193.5,227.9L62.3,279.3L73,305.2l129.2-56.4C198.1,242.5,195.1,235.5,193.5,227.9z"/>
				<path class="st3" d="M218.8,265.4l-43.4,102.9l22.2,9.2L239.6,274C232,272.5,225,269.5,218.8,265.4z"/>
				<path class="st3" d="M202.4,249.1L110.1,339l18.4,18.4l89.9-92.3C212.1,260.9,206.7,255.4,202.4,249.1z"/>
			</g>
			<polygon class="st3" points="363.7,223.2 48.2,231.1 48.2,201.1 363.7,209.2 363.7,223.2 			"/>
		</g>
	</g>
</g>
</svg>
