<svg width="866" height="161" viewBox="0 0 866 161" fill="none" xmlns="http://www.w3.org/2000/svg">
<g clip-path="url(#clip0_4220_5477)">
<path d="M172.553 23.7553V0H0V23.7553H76.7998C62.3058 32.6729 49.354 43.8431 38.3906 56.7633H0V80.5186H21.6296C7.89739 104.199 0 131.697 0 161H23.7108C23.7108 130.934 33.4292 103.12 49.8558 80.5H94.6758C71.4853 99.6383 56.6568 128.625 56.6568 161H80.3676C80.3676 116.598 116.417 80.5 160.717 80.5H172.572V56.7447H71.7641C95.7164 36.1915 126.786 23.7367 160.717 23.7367H172.572L172.553 23.7553Z" fill="white"/>
<path d="M239.244 67.9521V46.6542H316.026V67.9521H239.244ZM258.217 159.529V39.4122C258.217 27.4787 261.766 17.9467 268.901 10.7792C276.018 3.61164 286.183 0.0185547 299.413 0.0185547C304.17 0.0185547 308.649 0.521214 312.885 1.50792C317.122 2.51324 320.69 4.07706 323.57 6.19941L316.249 26.2313C314.223 24.6675 311.938 23.4946 309.336 22.7127C306.735 21.9308 304.077 21.5398 301.346 21.5398C295.734 21.5398 291.497 23.0664 288.617 26.1196C285.737 29.1728 284.306 33.7526 284.306 39.859V52.6303L285.161 64.5638V159.548H258.198L258.217 159.529Z" fill="white"/>
<path d="M338.51 159.529V1.48926H365.473V159.511H338.51V159.529Z" fill="white"/>
<path d="M439.875 161C430.083 161 421.461 159.194 413.991 155.564C406.521 151.933 400.686 146.404 396.523 138.939C392.342 131.492 390.28 122.072 390.28 110.715V45.7979H417.242V107.141C417.242 117.362 419.584 125.013 424.248 130.021C428.912 135.066 435.564 137.598 444.186 137.598C450.523 137.598 456.005 136.314 460.687 133.782C465.351 131.213 469.031 127.396 471.688 122.277C474.345 117.176 475.683 110.846 475.683 103.306V45.7979H502.646V159.529H476.984V128.867L481.518 138.231C477.653 145.622 471.948 151.263 464.478 155.173C456.99 159.082 448.795 161.019 439.894 161.019L439.875 161Z" fill="white"/>
<path d="M584.128 161C571.325 161 560.139 158.468 550.587 153.423C541.018 148.378 533.622 141.471 528.363 132.665C523.104 123.859 520.503 113.862 520.503 102.636C520.503 91.4095 523.049 81.226 528.159 72.4946C533.269 63.7632 540.311 56.9122 549.305 51.9414C558.28 46.9707 568.538 44.4946 580.04 44.4946C591.542 44.4946 601.242 46.9148 610.013 51.7367C618.784 56.5585 625.678 63.3723 630.713 72.1781C635.749 80.984 638.258 91.3351 638.258 103.287C638.258 104.423 638.221 105.707 638.165 107.104C638.09 108.519 637.979 109.859 637.849 111.144H541.872V93.4574H623.615L613.06 99.0053C613.19 92.4707 611.834 86.7366 608.972 81.7659C606.092 76.7952 602.19 72.9042 597.21 70.0558C592.248 67.2074 586.525 65.7925 580.059 65.7925C573.592 65.7925 567.664 67.2074 562.684 70.0558C557.723 72.9042 553.839 76.851 551.052 81.8776C548.246 86.9228 546.834 92.843 546.834 99.6569V103.92C546.834 110.734 548.413 116.785 551.591 122.016C554.75 127.266 559.209 131.306 564.97 134.154C570.712 137.003 577.327 138.417 584.816 138.417C591.282 138.417 597.117 137.412 602.283 135.439C607.449 133.465 612.057 130.338 616.071 126.074L630.528 142.476C625.362 148.433 618.839 153.013 610.998 156.215C603.175 159.418 594.2 161 584.147 161H584.109H584.128Z" fill="white"/>
<path d="M722.23 44.5132C731.428 44.5132 739.66 46.3004 746.926 49.8377C754.191 53.3749 759.896 58.8111 764.077 66.1275C768.258 73.444 770.321 82.8456 770.321 94.3509V159.511H743.358V97.7579C743.358 87.6861 740.942 80.1648 736.13 75.194C731.317 70.2233 724.59 67.7472 715.968 67.7472C709.632 67.7472 704.02 69.0318 699.133 71.5637C694.246 74.1329 690.473 77.9121 687.816 82.9573C685.159 88.0025 683.821 94.3509 683.821 102.021V159.529H656.858V45.7978H682.52V76.46L677.986 67.0956C682.019 59.8536 687.872 54.2871 695.565 50.3775C703.258 46.468 712.14 44.5318 722.193 44.5318L722.23 44.5132Z" fill="white"/>
<path d="M781.47 67.9523V46.6544H858.251V67.9523H781.47ZM840.115 161C827.46 161 817.686 157.779 810.792 151.301C803.898 144.822 800.442 135.309 800.442 122.668V20.665H827.405V122.035C827.405 127.434 828.798 131.622 831.623 134.601C834.429 137.58 838.35 139.069 843.385 139.069C849.406 139.069 854.442 137.505 858.474 134.378L866.018 153.33C862.841 155.899 858.976 157.798 854.386 159.083C849.778 160.367 845.039 161 840.152 161H840.115Z" fill="white"/>
</g>
<defs>
<clipPath id="clip0_4220_5477">
<rect width="866" height="161" fill="white"/>
</clipPath>
</defs>
</svg>
